<svg width="87" height="103" viewBox="0 0 87 103" fill="none" xmlns="http://www.w3.org/2000/svg">
<path d="M33.6 67.664C29.0347 67.664 24.6827 66.7893 20.544 65.04C16.4907 63.3333 12.928 60.9227 9.856 57.808C6.74133 54.736 4.33067 51.1733 2.624 47.12C0.874667 42.9813 0 38.6293 0 34.064C0 29.4987 0.874667 25.1467 2.624 21.008C4.33067 16.9973 6.74133 13.4347 9.856 10.32C11.392 8.74133 13.0347 7.35466 14.784 6.16C16.576 4.96533 18.496 3.94133 20.544 3.088C24.6827 1.33866 29.0347 0.463997 33.6 0.463997C37.7387 0.463997 41.7067 1.18933 45.504 2.64C49.3013 4.09066 52.736 6.16 55.808 8.848L57.024 9.936L54.912 12.304L53.696 11.28C50.88 8.80533 47.7653 6.928 44.352 5.648C40.9387 4.32533 37.3547 3.664 33.6 3.664C29.4187 3.664 25.472 4.47466 21.76 6.096C18.0907 7.67466 14.8693 9.85066 12.096 12.624C9.36533 15.3547 7.18933 18.576 5.568 22.288C3.98933 25.9573 3.2 29.8827 3.2 34.064C3.2 38.2453 3.98933 42.192 5.568 45.904C7.18933 49.5733 9.36533 52.7947 12.096 55.568C14.8693 58.2987 18.0907 60.4747 21.76 62.096C25.472 63.6747 29.4187 64.464 33.6 64.464C37.3547 64.464 40.9387 63.824 44.352 62.544C47.7653 61.2213 50.88 59.3227 53.696 56.848L54.912 55.824L57.024 58.192L55.808 59.28C52.736 61.968 49.3013 64.0373 45.504 65.488C41.7067 66.9387 37.7387 67.664 33.6 67.664Z" fill="white"/>
<path d="M79.024 21.464H82.288L65.712 88.664H62.576L56.176 62.68L49.712 88.664H46.576L30 21.464H33.264L48.112 81.688L54.512 56.088L46 21.464H49.264L64.112 81.688L79.024 21.464Z" fill="white"/>
</svg>
